<svg width="18" height="12" viewBox="0 0 18 12" fill="none" xmlns="http://www.w3.org/2000/svg">
<path fill-rule="evenodd" clip-rule="evenodd" d="M1.6875 6C1.6875 5.78451 1.7731 5.57785 1.92548 5.42548C2.07785 5.2731 2.28451 5.1875 2.5 5.1875L17.125 5.1875C17.3405 5.1875 17.5472 5.2731 17.6995 5.42548C17.8519 5.57785 17.9375 5.78451 17.9375 6C17.9375 6.21549 17.8519 6.42215 17.6995 6.57452C17.5472 6.7269 17.3405 6.8125 17.125 6.8125L2.5 6.8125C2.28451 6.8125 2.07785 6.7269 1.92548 6.57452C1.7731 6.42215 1.6875 6.21549 1.6875 6Z" fill="black"/>
<path fill-rule="evenodd" clip-rule="evenodd" d="M0.299249 6.57526C0.223584 6.49979 0.163552 6.41013 0.122592 6.31142C0.0816311 6.2127 0.0605469 6.10688 0.0605469 6.00001C0.0605469 5.89314 0.0816311 5.78732 0.122592 5.68861C0.163552 5.5899 0.223584 5.50024 0.299249 5.42476L5.17425 0.549761C5.32682 0.397195 5.53374 0.311485 5.7495 0.311485C5.96526 0.311485 6.17218 0.397195 6.32475 0.549761C6.47732 0.702327 6.56303 0.90925 6.56303 1.12501C6.56303 1.34077 6.47732 1.5477 6.32475 1.70026L2.02337 6.00001L6.32475 10.2998C6.47732 10.4523 6.56303 10.6593 6.56303 10.875C6.56303 11.0908 6.47732 11.2977 6.32475 11.4503C6.17218 11.6028 5.96526 11.6885 5.7495 11.6885C5.53374 11.6885 5.32682 11.6028 5.17425 11.4503L0.299249 6.57526Z" fill="black"/>
</svg>
