<svg width="26" height="26" viewBox="0 0 26 26" fill="none" xmlns="http://www.w3.org/2000/svg">
<path fill-rule="evenodd" clip-rule="evenodd" d="M5.6875 13C5.6875 12.7845 5.7731 12.5778 5.92548 12.4255C6.07785 12.2731 6.28451 12.1875 6.5 12.1875L21.125 12.1875C21.3405 12.1875 21.5472 12.2731 21.6995 12.4255C21.8519 12.5778 21.9375 12.7845 21.9375 13C21.9375 13.2155 21.8519 13.4222 21.6995 13.5745C21.5472 13.7269 21.3405 13.8125 21.125 13.8125L6.5 13.8125C6.28451 13.8125 6.07785 13.7269 5.92548 13.5745C5.7731 13.4222 5.6875 13.2155 5.6875 13Z" fill="black"/>
<path fill-rule="evenodd" clip-rule="evenodd" d="M4.29925 13.5753C4.22358 13.4998 4.16355 13.4101 4.12259 13.3114C4.08163 13.2127 4.06055 13.1069 4.06055 13C4.06055 12.8931 4.08163 12.7873 4.12259 12.6886C4.16355 12.5899 4.22358 12.5002 4.29925 12.4248L9.17425 7.54976C9.32682 7.39719 9.53374 7.31149 9.7495 7.31149C9.96526 7.31149 10.1722 7.39719 10.3248 7.54976C10.4773 7.70233 10.563 7.90925 10.563 8.12501C10.563 8.34077 10.4773 8.5477 10.3248 8.70026L6.02337 13L10.3247 17.2998C10.4773 17.4523 10.563 17.6593 10.563 17.875C10.563 18.0908 10.4773 18.2977 10.3247 18.4503C10.1722 18.6028 9.96526 18.6885 9.7495 18.6885C9.53374 18.6885 9.32682 18.6028 9.17425 18.4503L4.29925 13.5753Z" fill="black"/>
</svg>
