<?xml version="1.0" encoding="UTF-8"?>
<!DOCTYPE svg PUBLIC "-//W3C//DTD SVG 1.1//EN" "http://www.w3.org/Graphics/SVG/1.1/DTD/svg11.dtd">
<!-- Creator: CorelDRAW 2020 (64-Bit) -->
<svg xmlns="http://www.w3.org/2000/svg" xml:space="preserve" width="1280px" height="330px" version="1.1" style="shape-rendering:geometricPrecision; text-rendering:geometricPrecision; image-rendering:optimizeQuality; fill-rule:evenodd; clip-rule:evenodd"
viewBox="0 0 1270.41 327.53"
 xmlns:xlink="http://www.w3.org/1999/xlink"
 xmlns:xodm="http://www.corel.com/coreldraw/odm/2003">
 <defs>
  <style type="text/css">
   <![CDATA[
    .fil0 {fill:#FEFEFE;fill-rule:nonzero}
    .fil1 {fill:#DDEEF6;fill-rule:nonzero}
    .fil7 {fill:#752A27;fill-rule:nonzero}
    .fil2 {fill:#B6DBEA;fill-rule:nonzero}
    .fil6 {fill:#542A27;fill-rule:nonzero}
    .fil5 {fill:#86BE54;fill-rule:nonzero}
    .fil8 {fill:#63A239;fill-rule:nonzero}
    .fil3 {fill:#5A9B3B;fill-rule:nonzero}
    .fil4 {fill:#47863B;fill-rule:nonzero}
   ]]>
  </style>
 </defs>
 <g id="Слой_x0020_1">
  <metadata id="CorelCorpID_0Corel-Layer"/>
  <path class="fil0" d="M332.67 241.83c-25.25,-8.39 -54.78,-12.96 -81.51,-12.15 -31.03,0.94 -87.07,23.09 -83.22,37.83 0.3,1.16 -0.99,1.86 -1.81,1.47l0.01 0.26c38.63,26.61 88.23,40.56 151.55,51.32 51.17,8.69 101.48,0.65 135.69,-8 -23.38,-39.74 -79.75,-57.13 -120.71,-70.73z"/>
  <path class="fil0" d="M341.18 229.89c-92.65,-25.59 -144.56,-12.51 -203.2,15.72 8.64,8.88 18.05,16.67 28.16,23.63l-0.01 -0.26c0.82,0.39 2.11,-0.31 1.81,-1.47 -3.85,-14.74 52.19,-36.89 83.22,-37.83 26.73,-0.81 56.26,3.76 81.51,12.15 40.96,13.6 97.33,30.99 120.71,70.73 8.85,-2.24 16.67,-4.51 23.09,-6.56 -37.59,-37.03 -84.79,-62.16 -135.29,-76.11z"/>
  <path class="fil1" d="M453.38 312.56l0 0c-16.3,-27.7 -48.61,-44.53 -80.57,-56.8 1.43,-4.61 2.37,-9.43 2.77,-14.4 37.4,14.73 71.99,36.16 100.89,64.64 -6.42,2.05 -14.24,4.32 -23.09,6.56z"/>
  <path class="fil1" d="M168.2 263.62c-6.59,-4.54 -14.14,-10.4 -21.7,-16.91 28.26,-16.68 59.89,-28.18 99.57,-29.65 -1.27,4.24 -2.13,8.65 -2.54,13.2 -28.82,3.4 -70.56,20.13 -75.33,33.36z"/>
  <path class="fil1" d="M353.95 248.94c-7.37,-2.53 -14.53,-4.87 -21.28,-7.11 -13.22,-4.39 -27.62,-7.74 -42.17,-9.81 7.84,-3.27 16.11,-5.1 23.86,-5.1 0.01,0 0.01,0 0.02,0 15.94,0 32.01,7.84 39.57,22.02z"/>
  <path class="fil2" d="M385.36 219.49c-3.02,-1.54 -6.18,-3.03 -9.41,-4.48 -12.32,-3.59 -24.38,-6.5 -35.7,-8.8 0.92,-0.99 1.48,-2.31 1.74,-3.7 -17.96,-5.33 -38.12,-9.56 -60.4,-12.39 -22.35,0.04 -45.3,2.36 -67.22,7.6 -0.57,-3.65 -4.74,-7.16 -9.28,-5.21 -9.34,3.99 -18.6,8.08 -27.78,12.32l-0.59 0.03c-19.56,5.16 -37.05,12.68 -53.94,23.12 4.81,6.3 13.57,16.18 18.9,21.64 48.73,-30.13 106.85,-45.32 199.5,-19.73 50.5,13.95 97.7,39.08 135.29,76.11 12.76,-4.06 20.23,-7.2 20.23,-7.2 0,0 -56.32,-51.17 -111.34,-79.31z"/>
  <path class="fil3" d="M356 253.51c-6.31,-17.07 -24.04,-26.59 -41.62,-26.59 -25.78,-0.02 -57.2,20.27 -60.05,45.82 11.87,17.86 32.15,29.64 55.2,29.64 18.63,0 35.44,-7.72 47.48,-20.11 1.61,-9.5 2.7,-18.74 -1.01,-28.76z"/>
  <path class="fil4" d="M366.76 202.86c-32.15,-11.23 -66.57,-15.97 -100.64,-16.7 -13.97,12.14 -22.84,30 -22.84,49.97 0,13.54 4.08,26.12 11.05,36.61 2.85,-25.55 34.27,-45.84 60.05,-45.82 17.58,0 35.31,9.52 41.62,26.59 3.71,10.02 2.62,19.26 1.01,28.76 11.6,-11.93 18.77,-28.19 18.77,-46.14 0,-12.15 -3.32,-23.49 -9.02,-33.27z"/>
  <path class="fil4" d="M329.51 262.53c0,0 2.79,12.31 0,19.74 -4.63,12.3 -18.52,15.59 -18.52,15.59 0,0 16.33,0 23.15,-13.4 5.57,-10.94 0,-24.61 0,-24.61l-4.63 2.68z"/>
  <path class="fil4" d="M335.11 255.47c0,0 7.41,9.49 6.45,20.83 -0.97,11.33 -8.03,18.27 -8.03,18.27 0,0 15.73,-5.49 17.3,-24.12 1.35,-16.19 -8.59,-24.12 -8.59,-24.12l-7.13 9.14z"/>
  <path class="fil5" d="M327.8 264.37c0,14.11 -12.02,25.55 -26.86,25.55 -14.83,0 -26.85,-11.44 -26.85,-25.55 0,-14.11 12.02,-25.55 26.85,-25.55 14.84,0 26.86,11.44 26.86,25.55z"/>
  <path class="fil6" d="M302.59 180.53c-54.01,-11.84 -106.24,-11.18 -156.61,1.55 -17.29,0.49 -53.2,-19.04 -71.42,-37.35 12.86,27.02 21.7,32.78 39.43,44.08 -19.46,5.6 -58.93,-13.68 -82.73,-38.14 10.18,22.16 32.24,41.35 57.36,51.48 -18.79,11.21 -69.88,4.45 -87.84,-20.49l-0.78 0.33c7.84,21.41 32.39,46.2 98.02,49.58 113.22,113.95 291.11,103.63 351.33,82.88 -108.65,9.42 -204.73,0.4 -279.07,-49.4 -11.89,-7.98 -27.6,-20.78 -40.69,-34.1 35.22,-29.54 105.52,-37.82 143.9,-31.58 135.77,22.11 172.51,64.14 232.6,110.85 -61.2,-76.56 -122.56,-111.95 -203.5,-129.69z"/>
  <path class="fil6" d="M446.59 180.7c-76.25,-62.79 -204.74,-69.35 -289.48,-21.92 49.17,-14.05 94.31,-20.42 142.19,-16.94 52.08,3.8 98.48,18.29 141.86,45.9 6.95,4.42 9.62,-3.6 5.43,-7.04z"/>
  <path class="fil6" d="M551.35 82.1c-0.46,10.82 -2.71,21.65 -2.71,21.65 0,0 -2.25,-15.79 -9.47,-32.03 -1.35,8.57 -5.41,22.11 -5.41,22.11 0,0 -1.35,-13.09 -7.67,-25.72 -41.69,-28.01 -89.71,-40.08 -139.31,-50.51 -23.14,-4.86 -46.7,-8.18 -70.32,-10.34 -4.64,-0.65 -9.27,-1.27 -13.87,-1.83 -78.34,-9.55 -173.51,-9.14 -247.09,23.14 97.1,-13.23 186.8,2.2 265.52,21.39 76.28,18.59 157.92,48.21 230.55,77.76 13.09,-12.92 11.96,-27.36 11.96,-27.36 0,0 -6.35,-12.02 -12.18,-18.26z"/>
  <path class="fil6" d="M328.04 226.92c4.24,1.33 8.18,3.58 11.57,6.46 -4.45,-12.31 -16.22,-21.14 -30.08,-21.14 -15.5,0 -28.43,11.02 -31.39,25.65 15.07,-12.27 35.29,-15.55 49.9,-10.97z"/>
  <path class="fil7" d="M309.53 276.3c17.69,0 32.03,-14.34 32.03,-32.03 0,-3.83 -0.71,-7.48 -1.95,-10.89 -3.39,-2.88 -7.33,-5.13 -11.57,-6.46 -14.61,-4.58 -34.83,-1.3 -49.9,10.97 -0.42,2.06 -0.64,4.19 -0.64,6.38 0,17.69 14.34,32.03 32.03,32.03z"/>
  <path class="fil0" d="M353.17 247.9c-5.37,6.49 -16.09,6.49 -23.98,0 -7.87,-6.51 -9.92,-17.04 -4.57,-23.54 5.36,-6.49 16.09,-6.49 23.98,0 7.87,6.5 9.92,17.03 4.57,23.54z"/>
  <path class="fil0" d="M303.53 244.83c0,4.81 -3.9,8.7 -8.71,8.7 -4.81,0 -8.7,-3.89 -8.7,-8.7 0,-4.8 3.89,-8.7 8.7,-8.7 4.81,0 8.71,3.9 8.71,8.7z"/>
  <path class="fil8" d="M262.95 233.2c-4.37,0 -8.13,-2.49 -8.91,-6.23 -0.93,-4.42 2.64,-8.91 7.98,-10.03 0.82,-0.17 1.63,-0.25 2.43,-0.25 4.36,0 8.12,2.49 8.91,6.23 0.92,4.42 -2.65,8.91 -7.99,10.03 -0.81,0.17 -1.63,0.25 -2.42,0.25z"/>
  <path class="fil0" d="M937.74 241.83c25.26,-8.39 54.78,-12.96 81.51,-12.15 31.04,0.94 87.07,23.09 83.23,37.83 -0.3,1.16 0.98,1.86 1.81,1.47l-0.01 0.26c-38.64,26.61 -88.24,40.56 -151.56,51.32 -51.16,8.69 -101.48,0.65 -135.69,-8 23.39,-39.74 79.76,-57.13 120.71,-70.73z"/>
  <path class="fil0" d="M929.23 229.89c92.66,-25.59 144.56,-12.51 203.21,15.72 -8.65,8.88 -18.05,16.67 -28.16,23.63l0.01 -0.26c-0.83,0.39 -2.11,-0.31 -1.81,-1.47 3.84,-14.74 -52.19,-36.89 -83.23,-37.83 -26.73,-0.81 -56.25,3.76 -81.51,12.15 -40.95,13.6 -97.32,30.99 -120.71,70.73 -8.84,-2.24 -16.67,-4.51 -23.09,-6.56 37.59,-37.03 84.79,-62.16 135.29,-76.11z"/>
  <path class="fil1" d="M817.03 312.56c-8.84,-2.24 -16.67,-4.51 -23.09,-6.56 28.9,-28.48 63.49,-49.91 100.9,-64.64 0.39,4.97 1.33,9.79 2.76,14.4 -31.95,12.27 -64.27,29.1 -80.57,56.8l0 0z"/>
  <path class="fil1" d="M1102.22 263.62c-4.77,-13.23 -46.52,-29.96 -75.34,-33.36 -0.4,-4.55 -1.27,-8.96 -2.54,-13.2 39.69,1.47 71.31,12.97 99.58,29.65 -7.57,6.51 -15.12,12.37 -21.7,16.91z"/>
  <path class="fil1" d="M916.46 248.94c7.57,-14.18 23.63,-22.02 39.57,-22.02 0.01,0 0.02,0 0.03,0 7.75,0 16.02,1.83 23.86,5.1 -14.56,2.07 -28.95,5.42 -42.18,9.81 -6.75,2.24 -13.91,4.58 -21.28,7.11z"/>
  <path class="fil2" d="M885.06 219.49c3.01,-1.54 6.17,-3.03 9.4,-4.48 12.32,-3.59 24.39,-6.5 35.7,-8.8 -0.92,-0.99 -1.48,-2.31 -1.73,-3.7 17.95,-5.33 38.12,-9.56 60.39,-12.39 22.35,0.04 45.3,2.36 67.23,7.6 0.57,-3.65 4.73,-7.16 9.28,-5.21 9.33,3.99 18.6,8.08 27.78,12.32l0.58 0.03c19.57,5.16 37.05,12.68 53.94,23.12 -4.8,6.3 -13.57,16.18 -18.9,21.64 -48.72,-30.13 -106.84,-45.32 -199.5,-19.73 -50.5,13.95 -97.7,39.08 -135.29,76.11 -12.76,-4.06 -20.23,-7.2 -20.23,-7.2 0,0 56.32,-51.17 111.35,-79.31z"/>
  <path class="fil3" d="M914.41 253.51c6.31,-17.07 24.05,-26.59 41.62,-26.59 25.78,-0.02 57.2,20.27 60.05,45.82 -11.87,17.86 -32.15,29.64 -55.2,29.64 -18.63,0 -35.44,-7.72 -47.48,-20.11 -1.61,-9.5 -2.69,-18.74 1.01,-28.76z"/>
  <path class="fil4" d="M903.65 202.86c32.16,-11.23 66.57,-15.97 100.64,-16.7 13.98,12.14 22.85,30 22.85,49.97 0,13.54 -4.08,26.12 -11.06,36.61 -2.85,-25.55 -34.27,-45.84 -60.05,-45.82 -17.57,0 -35.31,9.52 -41.62,26.59 -3.7,10.02 -2.62,19.26 -1.01,28.76 -11.59,-11.93 -18.77,-28.19 -18.77,-46.14 0,-12.15 3.32,-23.49 9.02,-33.27z"/>
  <path class="fil4" d="M940.91 262.53c0,0 -2.8,12.31 0,19.74 4.62,12.3 18.51,15.59 18.51,15.59 0,0 -16.32,0 -23.14,-13.4 -5.57,-10.94 0,-24.61 0,-24.61l4.63 2.68z"/>
  <path class="fil4" d="M935.3 255.47c0,0 -7.4,9.49 -6.44,20.83 0.97,11.33 8.03,18.27 8.03,18.27 0,0 -15.74,-5.49 -17.3,-24.12 -1.36,-16.19 8.59,-24.12 8.59,-24.12l7.12 9.14z"/>
  <path class="fil5" d="M942.61 264.37c0,14.11 12.03,25.55 26.86,25.55 14.83,0 26.86,-11.44 26.86,-25.55 0,-14.11 -12.03,-25.55 -26.86,-25.55 -14.83,0 -26.86,11.44 -26.86,25.55z"/>
  <path class="fil6" d="M967.82 180.53c54.01,-11.84 106.25,-11.18 156.62,1.55 17.28,0.49 53.2,-19.04 71.41,-37.35 -12.86,27.02 -21.7,32.78 -39.42,44.08 19.46,5.6 58.92,-13.68 82.72,-38.14 -10.17,22.16 -32.24,41.35 -57.36,51.48 18.79,11.21 69.88,4.45 87.85,-20.49l0.77 0.33c-7.84,21.41 -32.38,46.2 -98.01,49.58 -113.23,113.95 -291.11,103.63 -351.34,82.88 108.65,9.42 204.74,0.4 279.07,-49.4 11.9,-7.98 27.61,-20.78 40.69,-34.1 -35.21,-29.54 -105.52,-37.82 -143.89,-31.58 -135.78,22.11 -172.52,64.14 -232.6,110.85 61.19,-76.56 122.55,-111.95 203.49,-129.69z"/>
  <path class="fil6" d="M823.82 180.7c76.25,-62.79 204.74,-69.35 289.48,-21.92 -49.17,-14.05 -94.3,-20.42 -142.19,-16.94 -52.08,3.8 -98.48,18.29 -141.86,45.9 -6.95,4.42 -9.62,-3.6 -5.43,-7.04z"/>
  <path class="fil6" d="M719.07 82.1c0.45,10.82 2.7,21.65 2.7,21.65 0,0 2.26,-15.79 9.48,-32.03 1.35,8.57 5.41,22.11 5.41,22.11 0,0 1.35,-13.09 7.67,-25.72 41.68,-28.01 89.7,-40.08 139.3,-50.51 23.15,-4.86 46.7,-8.18 70.32,-10.34 4.64,-0.65 9.27,-1.27 13.87,-1.83 78.34,-9.55 173.52,-9.14 247.09,23.14 -97.1,-13.23 -186.8,2.2 -265.52,21.39 -76.28,18.59 -157.91,48.21 -230.55,77.76 -13.08,-12.92 -11.95,-27.36 -11.95,-27.36 0,0 6.35,-12.02 12.18,-18.26z"/>
  <path class="fil6" d="M942.37 226.92c-4.23,1.33 -8.18,3.58 -11.57,6.46 4.46,-12.31 16.22,-21.14 30.08,-21.14 15.51,0 28.44,11.02 31.39,25.65 -15.07,-12.27 -35.29,-15.55 -49.9,-10.97z"/>
  <path class="fil7" d="M960.88 276.3c-17.68,0 -32.02,-14.34 -32.02,-32.03 0,-3.83 0.7,-7.48 1.94,-10.89 3.39,-2.88 7.34,-5.13 11.57,-6.46 14.61,-4.58 34.83,-1.3 49.9,10.97 0.42,2.06 0.64,4.19 0.64,6.38 0,17.69 -14.33,32.03 -32.03,32.03z"/>
  <path class="fil0" d="M917.25 247.9c5.36,6.49 16.09,6.49 23.97,0 7.88,-6.51 9.92,-17.04 4.57,-23.54 -5.35,-6.49 -16.09,-6.49 -23.97,0 -7.88,6.5 -9.93,17.03 -4.57,23.54z"/>
  <path class="fil0" d="M966.89 244.83c0,4.81 3.9,8.7 8.7,8.7 4.81,0 8.71,-3.89 8.71,-8.7 0,-4.8 -3.9,-8.7 -8.71,-8.7 -4.8,0 -8.7,3.9 -8.7,8.7z"/>
  <path class="fil8" d="M1007.47 233.2c-0.8,0 -1.61,-0.08 -2.43,-0.25 -5.34,-1.12 -8.9,-5.61 -7.98,-10.03 0.79,-3.74 4.54,-6.23 8.91,-6.23 0.8,0 1.61,0.08 2.43,0.25 5.33,1.12 8.9,5.61 7.98,10.03 -0.79,3.74 -4.55,6.23 -8.91,6.23z"/>
 </g>
</svg>
