<svg width="177" height="59" viewBox="0 0 177 59" fill="none" xmlns="http://www.w3.org/2000/svg">
<path d="M51.048 9H53.76V26.496H58.728V28.44H51.048V9Z" fill="#3D3B3C"/>
<path d="M65.1711 28.632C64.0991 28.632 63.2671 28.432 62.6751 28.032C62.0831 27.616 61.6671 27.008 61.4271 26.208C61.1871 25.408 61.0671 24.368 61.0671 23.088V19.92C61.0671 18 61.3631 16.6 61.9551 15.72C62.5631 14.824 63.6351 14.376 65.1711 14.376C66.2911 14.376 67.1311 14.608 67.6911 15.072C68.2671 15.536 68.6431 16.192 68.8191 17.04C69.0111 17.872 69.1071 19 69.1071 20.424V21.552H63.6351V24.336C63.6351 25.184 63.7551 25.8 63.9951 26.184C64.2511 26.552 64.6511 26.736 65.1951 26.736C65.7391 26.736 66.1071 26.552 66.2991 26.184C66.4911 25.8 66.5871 25.224 66.5871 24.456V23.616H69.0831V24.144C69.0831 25.6 68.7711 26.712 68.1471 27.48C67.5231 28.248 66.5311 28.632 65.1711 28.632ZM66.5871 20.16V18.912C66.5871 17.968 66.4911 17.296 66.2991 16.896C66.1231 16.48 65.7391 16.272 65.1471 16.272C64.7311 16.272 64.4111 16.368 64.1871 16.56C63.9791 16.752 63.8351 17.072 63.7551 17.52C63.6751 17.952 63.6351 18.584 63.6351 19.416V20.16H66.5871Z" fill="#3D3B3C"/>
<path d="M75.9926 32.736C74.6486 32.736 73.5766 32.52 72.7766 32.088C71.9766 31.672 71.5766 31.016 71.5766 30.12C71.5766 29.512 71.7606 28.984 72.1286 28.536C72.5126 28.088 72.9926 27.728 73.5686 27.456C73.1366 27.328 72.8006 27.128 72.5606 26.856C72.3366 26.584 72.2246 26.288 72.2246 25.968C72.2246 25.488 72.3446 25.072 72.5846 24.72C72.8246 24.368 73.2166 23.944 73.7606 23.448C73.2166 23.032 72.8086 22.512 72.5366 21.888C72.2806 21.248 72.1526 20.392 72.1526 19.32C72.1526 17.704 72.4806 16.48 73.1366 15.648C73.8086 14.8 74.7846 14.376 76.0646 14.376C76.8006 14.376 77.4006 14.504 77.8646 14.76C78.3286 15.016 78.6806 15.4 78.9206 15.912C79.0326 15.736 79.2646 15.504 79.6166 15.216C79.9846 14.912 80.3766 14.664 80.7926 14.472L81.1766 14.304L81.8246 15.96C81.5046 16.024 81.0566 16.16 80.4806 16.368C79.9206 16.576 79.5846 16.736 79.4726 16.848C79.5846 17.136 79.6806 17.536 79.7606 18.048C79.8566 18.56 79.9046 19.008 79.9046 19.392C79.9046 20.912 79.6086 22.096 79.0166 22.944C78.4246 23.776 77.4406 24.192 76.0646 24.192C75.6326 24.192 75.1926 24.136 74.7446 24.024C74.4406 24.472 74.2886 24.824 74.2886 25.08C74.2886 25.256 74.3766 25.4 74.5526 25.512C74.7446 25.608 75.0406 25.672 75.4406 25.704L77.6006 25.896C78.6886 25.992 79.4966 26.32 80.0246 26.88C80.5526 27.44 80.8166 28.24 80.8166 29.28C80.8166 31.584 79.2086 32.736 75.9926 32.736ZM76.0646 22.392C76.7526 22.392 77.2006 22.152 77.4086 21.672C77.6166 21.192 77.7206 20.408 77.7206 19.32C77.7206 18.216 77.6166 17.416 77.4086 16.92C77.2006 16.408 76.7606 16.152 76.0886 16.152C75.4166 16.152 74.9606 16.408 74.7206 16.92C74.4966 17.416 74.3846 18.216 74.3846 19.32C74.3846 20.312 74.4966 21.072 74.7206 21.6C74.9606 22.128 75.4086 22.392 76.0646 22.392ZM76.1846 30.72C77.0966 30.72 77.7686 30.608 78.2006 30.384C78.6326 30.176 78.8486 29.832 78.8486 29.352C78.8486 28.904 78.7126 28.576 78.4406 28.368C78.1686 28.144 77.6726 28 76.9526 27.936L74.7686 27.744C74.4326 28.08 74.1766 28.376 74.0006 28.632C73.8246 28.888 73.7366 29.168 73.7366 29.472C73.7366 29.904 73.9126 30.216 74.2646 30.408C74.6326 30.616 75.2726 30.72 76.1846 30.72Z" fill="#3D3B3C"/>
<path d="M86.2783 28.632C85.7503 28.632 85.2703 28.48 84.8383 28.176C84.4223 27.872 84.0943 27.472 83.8543 26.976C83.6143 26.48 83.4943 25.96 83.4943 25.416C83.4943 24.328 83.7263 23.448 84.1903 22.776C84.6543 22.088 85.2463 21.544 85.9663 21.144C86.6863 20.744 87.6863 20.288 88.9663 19.776V18.792C88.9663 17.88 88.8703 17.24 88.6783 16.872C88.5023 16.488 88.1343 16.296 87.5743 16.296C86.5983 16.296 86.1103 16.952 86.1103 18.264V18.96L83.5663 18.864C83.5983 17.328 83.9503 16.2 84.6223 15.48C85.2943 14.744 86.3343 14.376 87.7423 14.376C89.0703 14.376 90.0303 14.744 90.6223 15.48C91.2303 16.2 91.5343 17.296 91.5343 18.768V25.104C91.5343 26.144 91.6143 27.256 91.7743 28.44H89.4223C89.2463 27.528 89.1343 26.848 89.0863 26.4C88.8943 27.024 88.5583 27.552 88.0783 27.984C87.6143 28.416 87.0143 28.632 86.2783 28.632ZM87.2863 26.424C87.6223 26.424 87.9503 26.296 88.2703 26.04C88.5903 25.768 88.8223 25.512 88.9663 25.272V21.336C88.2783 21.72 87.7423 22.056 87.3583 22.344C86.9903 22.616 86.6783 22.936 86.4223 23.304C86.1823 23.672 86.0623 24.112 86.0623 24.624C86.0623 25.2 86.1663 25.648 86.3743 25.968C86.5823 26.272 86.8863 26.424 87.2863 26.424Z" fill="#3D3B3C"/>
<path d="M95.2011 9H97.7691V28.44H95.2011V9Z" fill="#3D3B3C"/>
<path d="M108.066 9H115.578V10.944H110.778V17.424H114.498V19.344H110.778V28.44H108.066V9Z" fill="#3D3B3C"/>
<path d="M120.681 28.632C120.153 28.632 119.673 28.48 119.241 28.176C118.825 27.872 118.497 27.472 118.257 26.976C118.017 26.48 117.897 25.96 117.897 25.416C117.897 24.328 118.129 23.448 118.593 22.776C119.057 22.088 119.649 21.544 120.369 21.144C121.089 20.744 122.089 20.288 123.369 19.776V18.792C123.369 17.88 123.273 17.24 123.081 16.872C122.905 16.488 122.537 16.296 121.977 16.296C121.001 16.296 120.513 16.952 120.513 18.264V18.96L117.969 18.864C118.001 17.328 118.353 16.2 119.025 15.48C119.697 14.744 120.737 14.376 122.145 14.376C123.473 14.376 124.433 14.744 125.025 15.48C125.633 16.2 125.937 17.296 125.937 18.768V25.104C125.937 26.144 126.017 27.256 126.177 28.44H123.825C123.649 27.528 123.537 26.848 123.489 26.4C123.297 27.024 122.961 27.552 122.481 27.984C122.017 28.416 121.417 28.632 120.681 28.632ZM121.689 26.424C122.025 26.424 122.353 26.296 122.673 26.04C122.993 25.768 123.225 25.512 123.369 25.272V21.336C122.681 21.72 122.145 22.056 121.761 22.344C121.393 22.616 121.081 22.936 120.825 23.304C120.585 23.672 120.465 24.112 120.465 24.624C120.465 25.2 120.569 25.648 120.777 25.968C120.985 26.272 121.289 26.424 121.689 26.424Z" fill="#3D3B3C"/>
<path d="M133.156 28.632C132.068 28.632 131.228 28.416 130.636 27.984C130.044 27.536 129.636 26.92 129.412 26.136C129.204 25.336 129.1 24.328 129.1 23.112V19.92C129.1 18.672 129.204 17.648 129.412 16.848C129.636 16.048 130.044 15.44 130.636 15.024C131.228 14.592 132.068 14.376 133.156 14.376C134.148 14.376 134.916 14.536 135.46 14.856C136.02 15.176 136.404 15.656 136.612 16.296C136.836 16.92 136.948 17.736 136.948 18.744V19.56H134.62V18.72C134.62 17.808 134.516 17.176 134.308 16.824C134.116 16.456 133.74 16.272 133.18 16.272C132.748 16.272 132.428 16.368 132.22 16.56C132.012 16.752 131.868 17.064 131.788 17.496C131.708 17.928 131.668 18.56 131.668 19.392V23.76C131.668 24.56 131.716 25.176 131.812 25.608C131.908 26.024 132.06 26.32 132.268 26.496C132.492 26.656 132.804 26.736 133.204 26.736C133.796 26.736 134.18 26.544 134.356 26.16C134.532 25.76 134.62 25.152 134.62 24.336V23.208H136.948V24.168C136.948 25.672 136.668 26.792 136.108 27.528C135.564 28.264 134.58 28.632 133.156 28.632Z" fill="#3D3B3C"/>
<path d="M144.031 28.632C142.959 28.632 142.127 28.432 141.535 28.032C140.943 27.616 140.527 27.008 140.287 26.208C140.047 25.408 139.927 24.368 139.927 23.088V19.92C139.927 18 140.223 16.6 140.815 15.72C141.423 14.824 142.495 14.376 144.031 14.376C145.151 14.376 145.991 14.608 146.551 15.072C147.127 15.536 147.503 16.192 147.679 17.04C147.871 17.872 147.967 19 147.967 20.424V21.552H142.495V24.336C142.495 25.184 142.615 25.8 142.855 26.184C143.111 26.552 143.511 26.736 144.055 26.736C144.599 26.736 144.967 26.552 145.159 26.184C145.351 25.8 145.447 25.224 145.447 24.456V23.616H147.943V24.144C147.943 25.6 147.631 26.712 147.007 27.48C146.383 28.248 145.391 28.632 144.031 28.632ZM145.447 20.16V18.912C145.447 17.968 145.351 17.296 145.159 16.896C144.983 16.48 144.599 16.272 144.007 16.272C143.591 16.272 143.271 16.368 143.047 16.56C142.839 16.752 142.695 17.072 142.615 17.52C142.535 17.952 142.495 18.584 142.495 19.416V20.16H145.447Z" fill="#3D3B3C"/>
<path d="M51.36 39H54.024L57.456 54.768L60.912 39H63.552L63.912 58.44H61.728L61.512 44.328L58.224 58.44H56.688L53.424 44.328L53.208 58.44H51L51.36 39Z" fill="#3D3B3C"/>
<path d="M70.1317 58.632C69.6037 58.632 69.1237 58.48 68.6917 58.176C68.2757 57.872 67.9477 57.472 67.7077 56.976C67.4677 56.48 67.3477 55.96 67.3477 55.416C67.3477 54.328 67.5797 53.448 68.0437 52.776C68.5077 52.088 69.0998 51.544 69.8197 51.144C70.5397 50.744 71.5397 50.288 72.8197 49.776V48.792C72.8197 47.88 72.7237 47.24 72.5317 46.872C72.3557 46.488 71.9877 46.296 71.4277 46.296C70.4517 46.296 69.9637 46.952 69.9637 48.264V48.96L67.4197 48.864C67.4517 47.328 67.8037 46.2 68.4757 45.48C69.1478 44.744 70.1877 44.376 71.5957 44.376C72.9237 44.376 73.8838 44.744 74.4757 45.48C75.0837 46.2 75.3877 47.296 75.3877 48.768V55.104C75.3877 56.144 75.4678 57.256 75.6278 58.44H73.2757C73.0998 57.528 72.9877 56.848 72.9397 56.4C72.7477 57.024 72.4117 57.552 71.9317 57.984C71.4677 58.416 70.8677 58.632 70.1317 58.632ZM71.1397 56.424C71.4757 56.424 71.8037 56.296 72.1237 56.04C72.4437 55.768 72.6758 55.512 72.8197 55.272V51.336C72.1318 51.72 71.5958 52.056 71.2118 52.344C70.8438 52.616 70.5317 52.936 70.2757 53.304C70.0357 53.672 69.9157 54.112 69.9157 54.624C69.9157 55.2 70.0197 55.648 70.2277 55.968C70.4357 56.272 70.7397 56.424 71.1397 56.424Z" fill="#3D3B3C"/>
<path d="M82.0305 58.632C80.9105 58.632 79.9985 58.28 79.2945 57.576C78.6065 56.872 78.2145 55.928 78.1185 54.744L80.2545 54.096C80.3825 54.992 80.5985 55.656 80.9025 56.088C81.2225 56.52 81.6705 56.736 82.2465 56.736C82.6945 56.736 83.0385 56.608 83.2785 56.352C83.5345 56.08 83.6625 55.72 83.6625 55.272C83.6625 54.872 83.5745 54.512 83.3985 54.192C83.2225 53.872 82.9345 53.544 82.5345 53.208L80.1585 51.168C79.6145 50.704 79.1905 50.216 78.8865 49.704C78.5985 49.176 78.4545 48.536 78.4545 47.784C78.4545 46.712 78.7745 45.88 79.4145 45.288C80.0545 44.68 80.9265 44.376 82.0305 44.376C83.0865 44.376 83.9105 44.72 84.5025 45.408C85.1105 46.08 85.4625 46.952 85.5585 48.024L83.8305 48.672C83.7185 47.888 83.5345 47.296 83.2785 46.896C83.0225 46.48 82.6385 46.272 82.1265 46.272C81.7105 46.272 81.3745 46.408 81.1185 46.68C80.8785 46.952 80.7585 47.288 80.7585 47.688C80.7585 48.2 80.9905 48.664 81.4545 49.08L83.9025 51.336C84.5265 51.912 85.0065 52.48 85.3425 53.04C85.6945 53.6 85.8705 54.28 85.8705 55.08C85.8705 56.232 85.5265 57.112 84.8385 57.72C84.1505 58.328 83.2145 58.632 82.0305 58.632Z" fill="#3D3B3C"/>
<path d="M88.7991 38.976H91.3671V50.568L95.1111 44.568H97.7991L94.5351 49.992L97.7031 58.44H95.1351L92.5431 51.336L91.3671 53.112V58.416H88.7991V38.976Z" fill="#3D3B3C"/>
<path d="M111.532 58.656C109.612 58.656 108.26 58.088 107.476 56.952C106.692 55.8 106.3 54.216 106.3 52.2V45.336C106.3 43.208 106.684 41.592 107.452 40.488C108.221 39.384 109.58 38.832 111.532 38.832C113.276 38.832 114.524 39.304 115.276 40.248C116.044 41.192 116.428 42.584 116.428 44.424V45.96H113.861V44.592C113.861 43.696 113.82 43.008 113.74 42.528C113.66 42.048 113.452 41.664 113.117 41.376C112.797 41.088 112.277 40.944 111.556 40.944C110.82 40.944 110.269 41.104 109.901 41.424C109.549 41.728 109.316 42.16 109.204 42.72C109.092 43.264 109.036 44 109.036 44.928V52.632C109.036 53.624 109.117 54.4 109.277 54.96C109.437 55.52 109.692 55.92 110.044 56.16C110.412 56.4 110.917 56.52 111.556 56.52C112.244 56.52 112.757 56.368 113.092 56.064C113.428 55.76 113.636 55.344 113.716 54.816C113.812 54.288 113.861 53.568 113.861 52.656V51.216H116.428V52.656C116.428 54.592 116.061 56.08 115.325 57.12C114.604 58.144 113.34 58.656 111.532 58.656Z" fill="#3D3B3C"/>
<path d="M119.828 44.568H122.396V46.536C122.876 45.752 123.364 45.2 123.86 44.88C124.372 44.56 124.908 44.4 125.468 44.4C125.612 44.4 125.748 44.408 125.876 44.424V47.256C125.364 47.064 124.892 46.968 124.46 46.968C124.044 46.968 123.668 47.072 123.332 47.28C123.012 47.472 122.7 47.816 122.396 48.312V58.44H119.828V44.568Z" fill="#3D3B3C"/>
<path d="M132.267 58.632C131.195 58.632 130.363 58.432 129.771 58.032C129.179 57.616 128.763 57.008 128.523 56.208C128.283 55.408 128.163 54.368 128.163 53.088V49.92C128.163 48 128.459 46.6 129.051 45.72C129.659 44.824 130.731 44.376 132.267 44.376C133.387 44.376 134.227 44.608 134.787 45.072C135.363 45.536 135.739 46.192 135.915 47.04C136.107 47.872 136.203 49 136.203 50.424V51.552H130.731V54.336C130.731 55.184 130.851 55.8 131.091 56.184C131.347 56.552 131.747 56.736 132.291 56.736C132.835 56.736 133.203 56.552 133.395 56.184C133.587 55.8 133.683 55.224 133.683 54.456V53.616H136.179V54.144C136.179 55.6 135.867 56.712 135.243 57.48C134.619 58.248 133.627 58.632 132.267 58.632ZM133.683 50.16V48.912C133.683 47.968 133.587 47.296 133.395 46.896C133.219 46.48 132.835 46.272 132.243 46.272C131.827 46.272 131.507 46.368 131.283 46.56C131.075 46.752 130.931 47.072 130.851 47.52C130.771 47.952 130.731 48.584 130.731 49.416V50.16H133.683Z" fill="#3D3B3C"/>
<path d="M141.985 58.632C141.457 58.632 140.977 58.48 140.545 58.176C140.129 57.872 139.801 57.472 139.561 56.976C139.321 56.48 139.201 55.96 139.201 55.416C139.201 54.328 139.433 53.448 139.897 52.776C140.361 52.088 140.953 51.544 141.673 51.144C142.393 50.744 143.393 50.288 144.673 49.776V48.792C144.673 47.88 144.577 47.24 144.385 46.872C144.209 46.488 143.841 46.296 143.281 46.296C142.305 46.296 141.817 46.952 141.817 48.264V48.96L139.273 48.864C139.305 47.328 139.657 46.2 140.329 45.48C141.001 44.744 142.041 44.376 143.449 44.376C144.777 44.376 145.737 44.744 146.329 45.48C146.937 46.2 147.241 47.296 147.241 48.768V55.104C147.241 56.144 147.321 57.256 147.481 58.44H145.129C144.953 57.528 144.841 56.848 144.793 56.4C144.601 57.024 144.265 57.552 143.785 57.984C143.321 58.416 142.721 58.632 141.985 58.632ZM142.993 56.424C143.329 56.424 143.657 56.296 143.977 56.04C144.297 55.768 144.529 55.512 144.673 55.272V51.336C143.985 51.72 143.449 52.056 143.065 52.344C142.697 52.616 142.385 52.936 142.129 53.304C141.889 53.672 141.769 54.112 141.769 54.624C141.769 55.2 141.873 55.648 142.081 55.968C142.289 56.272 142.593 56.424 142.993 56.424Z" fill="#3D3B3C"/>
<path d="M154.176 58.632C152.176 58.632 151.176 57.528 151.176 55.32V46.272H149.712V44.568H151.176V40.512H153.744V44.568H155.976V46.272H153.744V55.152C153.744 55.712 153.832 56.104 154.008 56.328C154.184 56.552 154.52 56.664 155.016 56.664C155.336 56.664 155.648 56.64 155.952 56.592V58.488C155.312 58.584 154.72 58.632 154.176 58.632Z" fill="#3D3B3C"/>
<path d="M162.639 58.632C161.167 58.632 160.119 58.2 159.495 57.336C158.887 56.456 158.583 55.184 158.583 53.52V49.488C158.583 47.824 158.887 46.56 159.495 45.696C160.119 44.816 161.167 44.376 162.639 44.376C164.095 44.376 165.127 44.816 165.735 45.696C166.359 46.56 166.671 47.824 166.671 49.488V53.52C166.671 55.184 166.359 56.456 165.735 57.336C165.127 58.2 164.095 58.632 162.639 58.632ZM162.639 56.736C163.103 56.736 163.439 56.6 163.647 56.328C163.855 56.056 163.983 55.72 164.031 55.32C164.079 54.92 164.103 54.376 164.103 53.688V49.344C164.103 48.656 164.079 48.112 164.031 47.712C163.983 47.296 163.855 46.952 163.647 46.68C163.439 46.408 163.103 46.272 162.639 46.272C162.175 46.272 161.831 46.408 161.607 46.68C161.399 46.952 161.271 47.296 161.223 47.712C161.175 48.112 161.151 48.656 161.151 49.344V53.688C161.151 54.376 161.175 54.92 161.223 55.32C161.271 55.72 161.399 56.056 161.607 56.328C161.831 56.6 162.175 56.736 162.639 56.736Z" fill="#3D3B3C"/>
<path d="M170.05 44.568H172.618V46.536C173.098 45.752 173.586 45.2 174.082 44.88C174.594 44.56 175.13 44.4 175.69 44.4C175.834 44.4 175.97 44.408 176.098 44.424V47.256C175.586 47.064 175.114 46.968 174.682 46.968C174.266 46.968 173.89 47.072 173.554 47.28C173.234 47.472 172.922 47.816 172.618 48.312V58.44H170.05V44.568Z" fill="#3D3B3C"/>
<g clip-path="url(#clip0)">
<path d="M10.1149 39.8793C9.94179 40.3561 9.73653 40.7761 9.24933 41.0007C9.10954 41.0748 8.95347 41.115 8.79439 41.1177C8.63531 41.1204 8.47791 41.0857 8.33553 41.0163C8.11666 40.9089 7.89531 40.8063 7.68263 40.6892C7.31166 40.4877 6.95184 40.4189 6.59819 40.7085C6.24453 40.9982 6.18517 41.3676 6.31377 41.7804C6.53759 42.4938 6.75028 43.2095 6.99141 43.9181C7.29559 44.8113 7.53424 45.7286 7.98064 46.5735C8.11171 46.815 8.21682 47.1517 8.55686 47.1336C8.89691 47.1155 9.05148 46.8065 9.14793 46.5241C9.39524 45.8397 9.33218 45.1372 9.23078 44.4371C9.12938 43.737 8.96492 43.0816 8.92906 42.3851C8.91175 42.0761 8.95874 41.7985 9.19492 41.5704C9.46696 41.306 9.60669 41.3157 9.76991 41.6549C10.4401 43.049 11.3774 44.2548 12.4718 45.3496C12.9948 45.8735 13.5574 46.3611 14.1188 46.8451C14.4898 47.1698 14.7049 47.5331 14.5937 48.0341C14.5281 48.3298 14.6691 48.5471 14.8744 48.7462C16.6723 50.4976 18.5271 52.1887 20.4141 53.8471C21.6506 54.9335 22.8686 56.0198 24.2065 56.9854C25.5445 57.9511 26.9986 58.6234 28.6321 58.9095C29.7129 59.099 30.7281 59.0302 31.4762 58.0742C31.763 57.7121 32.1662 57.4272 32.4518 57.0591C33.2457 56.0403 34.3647 55.4042 35.3564 54.6148C37.8184 52.6546 39.6757 50.2791 40.5066 47.2362C40.8504 45.9797 41.0482 44.7014 40.8219 43.3918C40.7786 43.0879 40.7612 42.7811 40.77 42.4744C40.77 40.1919 40.7849 37.9106 40.7811 35.6281C40.7811 34.8085 40.9864 34.0095 40.9975 33.1899C41.0103 33.0024 40.9731 32.8149 40.8894 32.6456C40.8058 32.4764 40.6786 32.3312 40.5202 32.2243C39.8315 31.7125 39.024 31.4904 38.2017 31.3516C36.9194 31.1355 35.7657 30.6974 34.8173 29.7957C34.2349 29.2429 33.5053 29.1294 32.7275 29.2103C32.4271 29.2417 32.1266 29.2948 31.8249 29.3105C31.6953 29.3245 31.5642 29.3124 31.4396 29.2751C31.3151 29.2377 31.1996 29.1759 31.1004 29.0933C31.0013 29.0108 30.9205 28.9093 30.863 28.7951C30.8056 28.6809 30.7727 28.5564 30.7664 28.4294C30.6365 27.0557 30.4214 25.6882 30.4362 24.3049C30.4362 23.9331 30.2409 23.9428 30.0455 24.1142C29.7277 24.3858 29.4161 24.3556 29.0451 24.2506C27.5304 23.8124 25.9933 23.5264 24.3994 23.711C23.48 23.8102 22.5892 24.0833 21.7767 24.5149C21.2908 24.7757 21.1164 25.2524 21.318 25.693C21.5195 26.1336 22.0104 26.3098 22.5248 26.142C23.885 25.6954 25.2774 25.4178 26.7291 25.5313C27.2898 25.5766 27.8403 25.7035 28.3625 25.9079C28.5482 25.9682 28.7149 26.0738 28.8469 26.2147C28.9789 26.3556 29.0718 26.5271 29.1168 26.7129C29.374 27.7063 29.4965 28.6985 29.2764 29.7209C29.1638 30.2399 28.8807 30.5477 28.3601 30.6588C26.7971 30.9907 25.2329 31.3118 23.6723 31.6558C21.5368 32.1277 19.405 32.6142 17.2732 33.1042C16.8056 33.19 16.3464 33.3147 15.9007 33.4772C15.7926 33.5191 15.6761 33.5363 15.5602 33.5275C15.4442 33.5187 15.3319 33.4841 15.2317 33.4265C14.4589 33.0173 13.6848 32.6105 12.9144 32.1977C12.5002 31.9744 12.3469 31.6196 12.405 31.1681C12.6132 29.6031 12.9963 28.065 13.5475 26.5814C14.031 25.2536 14.6901 24.0466 15.7127 23.0182C16.8677 21.8607 17.0371 20.4484 16.6698 18.9288C16.3829 17.7471 15.9143 16.6269 15.5013 15.4863C14.789 13.5212 15.5384 12.1995 17.6306 11.6877C18.8081 11.4036 20.0205 11.2809 21.2327 11.3232C22.8402 11.3727 24.4266 11.1892 26.0131 10.9792C26.2604 10.9478 26.488 10.7523 26.8329 10.9382L24.7852 11.4427C25.2094 11.5634 25.6199 11.5043 26.0218 11.4657C28.0002 11.2846 29.9156 10.8464 31.8335 10.4047C33.1084 10.1126 34.3907 9.95444 35.6594 10.4554C36.3296 10.7209 36.8662 11.1651 37.3386 11.6865C37.5771 11.9504 37.7984 12.2286 38.0014 12.5194C38.2796 12.9213 38.5677 13.2967 39.1427 13.1664C39.5669 13.0698 39.8315 12.6473 39.8599 12.0233C39.9836 9.26884 39.118 6.83304 37.3126 4.72797C35.8703 3.02735 34.0135 1.70752 31.9127 0.889586C29.3845 -0.125679 26.579 -0.27669 23.9518 0.461087C23.0622 0.693551 22.1507 0.837522 21.2314 0.890794C19.3346 1.02115 17.4328 1.09116 15.5359 1.22876C14.0718 1.33498 12.8155 1.84315 12.0736 3.19623C11.8906 3.53058 11.5617 3.67905 11.1981 3.76234C6.31501 4.85712 3.16059 7.83971 1.40718 12.3383C0.479771 14.7174 0.061821 17.1943 0.00246811 19.7339C-0.0482292 21.892 0.0135956 24.043 0.373432 26.1782C0.497086 26.8856 0.620739 27.5917 0.759232 28.2978C0.838371 28.707 1.02138 29.0522 1.47643 29.1632C1.90798 29.2682 2.20722 29.0594 2.49781 28.7661C3.30898 27.9477 4.27101 27.9622 5.29734 28.3135C6.6373 28.771 7.84039 29.5452 8.79923 30.567C9.29384 31.0933 9.8305 31.6027 10.2274 32.205C10.6244 32.8073 11.1746 32.864 11.7694 32.7312C11.9635 32.6835 12.1654 32.6737 12.3634 32.7025C12.5615 32.7313 12.7517 32.7981 12.9231 32.899C13.602 33.2696 14.2833 33.6353 14.9782 33.9781C15.2821 34.1264 15.5509 34.3351 15.7672 34.5907C15.9836 34.8464 16.1428 35.1435 16.2346 35.4628C17.01 37.87 17.4215 40.3749 17.4563 42.8981C17.481 44.3248 16.8145 45.4413 15.8735 46.4408C15.7914 46.5365 15.6898 46.6147 15.5752 46.6703C15.4607 46.7258 15.3355 46.7576 15.2077 46.7636C15.0799 46.7696 14.9523 46.7497 14.8327 46.7052C14.7132 46.6606 14.6044 46.5924 14.5133 46.5047C12.8514 45.0672 11.3984 43.4582 10.3177 41.5474C10.1514 41.2652 10.0886 40.9361 10.1396 40.6144C10.1928 40.373 10.2349 40.1231 10.1149 39.8793Z" fill="#3D3C3C"/>
<path d="M38.6556 24.2204C37.3028 24.2856 36.0168 24.5982 35.03 25.6459C34.7382 25.9562 34.5837 26.3014 34.7667 26.7226C34.8718 26.964 34.9793 27.0437 35.2427 26.8433C36.5498 25.8463 37.9916 25.559 39.5706 26.13C40.1493 26.34 40.6575 26.1215 40.8072 25.5892C40.8496 25.4616 40.8633 25.3265 40.8473 25.1932C40.8313 25.0599 40.786 24.9316 40.7145 24.817C40.643 24.7024 40.5469 24.6042 40.433 24.5291C40.319 24.4541 40.1898 24.404 40.0541 24.3822C39.7709 24.3303 39.4878 24.2844 39.2021 24.2482C39.0389 24.2313 38.8646 24.2313 38.6556 24.2204Z" fill="#3D3C3C"/>
<path d="M21.3562 28.6623C21.7272 28.5416 21.9931 28.235 22.4295 28.1469C22.3183 28.4619 22.0042 28.573 21.8991 28.8289C21.9943 28.9653 22.0883 28.8808 22.1625 28.8289C22.343 28.7142 22.5161 28.5875 22.6892 28.4607C23.3409 27.9852 23.9715 28.1216 24.3153 28.8422C24.5428 29.325 24.868 29.6207 25.4282 29.6267C25.6091 29.6327 25.7889 29.5968 25.953 29.5221C26.1171 29.4474 26.2607 29.3359 26.3723 29.1967C26.4839 29.0576 26.5603 28.8947 26.5952 28.7212C26.6301 28.5478 26.6226 28.3688 26.5732 28.1988C26.5448 28.0878 26.3951 27.9574 26.5485 27.8645C26.6721 27.7932 26.7958 27.9103 26.8947 27.9852C27.0678 28.1059 27.2335 28.2374 27.4215 28.3774C27.3732 28.0805 27.3732 28.0805 26.4137 27.3068C26.6919 27.2127 26.9083 27.3478 27.1173 27.413C27.3621 27.5037 27.6015 27.6077 27.8345 27.7244C27.4697 27.2283 27.0109 27.0618 26.5485 26.9604C24.4723 26.5041 22.7671 27.1813 21.3562 28.6623ZM25.1895 28.4426C25.1414 28.4432 25.0937 28.4341 25.0494 28.4159C25.0051 28.3977 24.9651 28.3707 24.9319 28.3368C24.8987 28.3028 24.873 28.2625 24.8565 28.2184C24.84 28.1743 24.833 28.1274 24.8359 28.0805C24.8302 28.0307 24.8364 27.9804 24.854 27.9333C24.8717 27.8863 24.9003 27.8439 24.9375 27.8095C24.9748 27.7751 25.0198 27.7497 25.0689 27.7351C25.118 27.7205 25.1698 27.7173 25.2204 27.7256C25.2677 27.7246 25.3148 27.7331 25.3585 27.7506C25.4023 27.7682 25.4419 27.7944 25.4748 27.8276C25.5077 27.8609 25.5331 27.9004 25.5496 27.9437C25.566 27.987 25.5731 28.0332 25.5704 28.0793C25.5679 28.3062 25.4133 28.4269 25.1895 28.4426ZM25.83 29.2791C25.694 29.267 25.6087 29.197 25.6174 29.0642C25.618 29.0357 25.6251 29.0077 25.6381 28.9821C25.6511 28.9566 25.6697 28.9341 25.6926 28.9164C25.7155 28.8986 25.7421 28.886 25.7706 28.8794C25.799 28.8729 25.8286 28.8725 25.8572 28.8784C25.8828 28.8779 25.9081 28.8824 25.9318 28.8918C25.9554 28.9012 25.9769 28.9152 25.9948 28.9329C26.0127 28.9506 26.0268 28.9717 26.0361 28.9949C26.0454 29.0182 26.0498 29.043 26.0489 29.0679C26.05 29.0961 26.045 29.1242 26.0344 29.1505C26.0237 29.1767 26.0076 29.2005 25.987 29.2204C25.9664 29.2403 25.9418 29.2557 25.9148 29.2658C25.8878 29.2759 25.8589 29.2805 25.83 29.2791Z" fill="#3D3C3C"/>
<path d="M35.2154 27.133C35.4405 27.3261 35.6841 27.1765 35.9067 27.3044C35.6594 27.6508 35.1648 27.7232 34.8989 28.1361C35.6952 27.9514 36.086 28.3062 36.3679 28.946C36.7154 29.7378 37.8233 29.8549 38.3711 29.1669C38.7124 28.7347 39.0549 28.4064 39.6608 28.5211C39.7036 28.531 39.7484 28.5266 39.7883 28.5086C39.8282 28.4907 39.8608 28.4602 39.8809 28.4221C39.9588 28.2761 39.8537 28.1807 39.7684 28.089C38.7792 27.0521 37.5822 26.5452 36.1169 26.8252C35.8238 26.8819 35.485 26.8844 35.2154 27.133ZM37.1704 28.4125C36.9429 28.3618 36.7995 28.2423 36.8118 28.0057C36.8105 27.9594 36.8195 27.9134 36.8382 27.8709C36.8569 27.8284 36.8849 27.7903 36.9202 27.7594C36.9555 27.7285 36.9973 27.7055 37.0426 27.6919C37.088 27.6784 37.1358 27.6747 37.1828 27.681C37.2301 27.6779 37.2776 27.6846 37.3221 27.7007C37.3666 27.7168 37.407 27.7419 37.4408 27.7744C37.4746 27.807 37.5009 27.8461 37.5181 27.8893C37.5352 27.9325 37.5427 27.9788 37.5401 28.025C37.5426 28.2616 37.3881 28.3714 37.1704 28.4125ZM37.7887 28.8217C37.817 28.8188 37.8455 28.8216 37.8727 28.8298C37.8998 28.838 37.925 28.8515 37.9467 28.8694C37.9684 28.8873 37.9862 28.9093 37.999 28.9341C38.0118 28.9589 38.0193 28.9859 38.0212 29.0136C38.0254 29.041 38.0236 29.0689 38.0159 29.0956C38.0082 29.1223 37.9948 29.147 37.9765 29.1683C37.9583 29.1895 37.9357 29.2067 37.9101 29.2187C37.8845 29.2308 37.8566 29.2374 37.8283 29.2381C37.8003 29.2426 37.7716 29.2412 37.7442 29.2338C37.7168 29.2265 37.6914 29.2134 37.6698 29.1954C37.6481 29.1775 37.6307 29.1552 37.6188 29.13C37.6069 29.1049 37.6007 29.0775 37.6007 29.0498C37.5969 29.0223 37.599 28.9943 37.6068 28.9676C37.6146 28.9408 37.628 28.916 37.6461 28.8946C37.6642 28.8732 37.6867 28.8556 37.7121 28.8431C37.7375 28.8305 37.7652 28.8232 37.7936 28.8217H37.7887Z" fill="#3D3C3C"/>
<path d="M8.06848 35.3723C7.89551 35.3674 7.72463 35.4101 7.57531 35.4955C7.42599 35.5809 7.30424 35.7054 7.22393 35.8551C6.94694 36.3294 6.61555 36.7145 5.98738 36.6807C5.95147 36.6743 5.91442 36.6799 5.88214 36.6966C5.84986 36.7132 5.82422 36.7399 5.80932 36.7724C5.77346 36.8738 5.85383 36.9257 5.91937 36.9788C6.04873 37.0811 6.20199 37.1506 6.36552 37.1812C6.52904 37.2117 6.69776 37.2023 6.85667 37.1538C7.0372 37.1092 7.21279 37.044 7.38962 36.9836C8.11299 36.7422 8.21068 36.7688 8.63605 37.3808C8.79804 37.6137 8.96621 37.837 9.29389 37.6222C9.59932 37.423 9.71926 37.1828 9.48308 36.8436C9.2469 36.5045 9.04164 36.152 8.81659 35.8092C8.74055 35.68 8.63186 35.572 8.50089 35.4955C8.36992 35.419 8.22104 35.3766 8.06848 35.3723Z" fill="#3D3C3C"/>
<path d="M3.00357 34.1217C2.90217 33.3625 2.78099 32.6154 2.87991 31.8513C3.00357 30.905 3.62183 30.3377 4.59128 30.2592C5.3864 30.1948 6.18448 30.343 6.8999 30.6877C6.47948 30.1301 5.88222 29.8428 5.2318 29.6424C5.03749 29.589 4.83828 29.5542 4.63703 29.5386C3.36587 29.4034 2.48669 30.1265 2.40384 31.3733C2.34449 32.3438 2.49782 33.2708 3.00357 34.1217Z" fill="#3D3C3C"/>
</g>
<defs>
<clipPath id="clip0">
<rect width="41" height="59" fill="white" transform="matrix(-1 0 0 1 41 0)"/>
</clipPath>
</defs>
</svg>
