<?xml version="1.0" encoding="UTF-8"?>
<!DOCTYPE svg PUBLIC "-//W3C//DTD SVG 1.1//EN" "http://www.w3.org/Graphics/SVG/1.1/DTD/svg11.dtd">
<!-- Creator: CorelDRAW 2020 (64-Bit) -->
<svg xmlns="http://www.w3.org/2000/svg" xml:space="preserve" width="1920px" height="999px" version="1.1" style="shape-rendering:geometricPrecision; text-rendering:geometricPrecision; image-rendering:optimizeQuality; fill-rule:evenodd; clip-rule:evenodd"
viewBox="0 0 1935.21 1007.24"
 xmlns:xlink="http://www.w3.org/1999/xlink"
 xmlns:xodm="http://www.corel.com/coreldraw/odm/2003">
 <defs>
  <style type="text/css">
   <![CDATA[
    .fil0 {fill:#434242}
   ]]>
  </style>
 </defs>
 <g id="Слой_x0020_1">
  <metadata id="CorelCorpID_0Corel-Layer"/>
  <path class="fil0" d="M1618.94 170.35c84.66,-30.53 216.89,-65.16 247.13,29.93 22.39,70.39 -9.88,238.27 -27.27,305.83 -60.9,236.64 -136.4,350.91 -353.92,251.84 20.54,-38.24 47.58,-54.76 69.84,-113.4 53.94,-142.07 32.95,-381.55 64.22,-474.2zm-1166.99 588.68c-186.17,76.16 -252.07,24.56 -315.68,-139.22 -33.29,-85.7 -105.95,-344.68 -60.03,-434.69 31.33,-61.39 126.55,-50.38 197.43,-30.13 68.11,19.45 49.13,25.26 64.04,198.95 6.5,75.78 9.5,161.38 27.3,233.6 30.15,122.24 68.12,129.75 86.94,171.49zm981.81 40.48c76.98,27.96 147.78,72.11 247.93,44.8 210.99,-57.55 277.25,-542.42 246.31,-654.66 -53.1,-192.61 -297.37,-76.6 -464.98,-72.58 -204.71,4.9 -328.94,-113.57 -487.82,-117 -157.95,-3.41 -294.32,119.92 -495.14,117.12 -160.69,-2.25 -417.99,-116.58 -469.76,67.41 -38.72,137.62 40.54,405.99 91.97,512.75 85.27,177.05 206.62,185.24 399.68,102.08l203.42 132.13c342.5,194.8 564.25,-36.92 728.39,-132.05z"/>
 </g>
</svg>
