<svg width="560" height="291" viewBox="0 0 560 291" fill="none" xmlns="http://www.w3.org/2000/svg">
<path fill-rule="evenodd" clip-rule="evenodd" d="M468.419 49.2155C492.909 40.3952 531.161 30.3903 539.908 57.8626C546.385 78.1988 537.05 126.701 532.02 146.219C514.403 214.587 492.562 247.6 429.638 218.978C435.579 207.93 443.402 203.157 449.841 186.216C465.445 145.171 459.373 75.9829 468.419 49.2155ZM130.831 219.29C76.9756 241.293 57.912 226.386 39.5109 179.068C29.8807 154.309 8.86159 79.4874 22.1454 53.4827C31.2085 35.7466 58.7538 38.9275 79.258 44.7779C98.9609 50.3972 93.4704 52.0757 97.7835 102.256C99.6639 124.15 100.532 148.88 105.681 169.745C114.403 205.061 125.387 207.231 130.831 219.29ZM414.85 230.985C437.118 239.063 457.599 251.818 486.571 243.928C547.606 227.301 566.774 87.2185 557.824 54.7915C542.463 -0.85515 471.8 32.6611 423.314 33.8225C364.095 35.2382 328.158 1.0112 282.197 0.0202446C236.505 -0.964933 197.056 34.6661 138.963 33.8572C92.4781 33.2071 18.0462 0.176254 3.07019 53.3325C-8.13075 93.092 14.7976 170.626 29.6753 201.47C54.3423 252.621 89.4465 254.988 145.295 230.962L204.14 269.135C303.219 325.415 367.367 258.469 414.85 230.985Z" fill="#35386D"/>
</svg>
