<svg width="150" height="79" viewBox="0 0 150 79" fill="none" xmlns="http://www.w3.org/2000/svg">
<path fill-rule="evenodd" clip-rule="evenodd" d="M125.469 13.3609C132.029 10.9664 142.275 8.25026 144.618 15.7084C146.353 21.2292 143.853 34.3964 142.505 39.6953C137.786 58.2555 131.936 67.2179 115.082 59.4476C116.673 56.4484 118.768 55.1527 120.493 50.5534C124.673 39.4106 123.046 20.6276 125.469 13.3609ZM35.0441 59.5323C20.6186 65.5057 15.5122 61.4586 10.5834 48.613C8.00385 41.8914 2.37373 21.579 5.93188 14.5193C8.35951 9.70439 15.7377 10.5679 21.2299 12.1562C26.5075 13.6817 25.0368 14.1374 26.1921 27.7603C26.6958 33.7038 26.9282 40.4176 28.3075 46.082C30.6437 55.6695 33.5858 56.2586 35.0441 59.5323ZM111.121 62.7073C117.085 64.9002 122.571 68.363 130.332 66.221C146.68 61.7073 151.815 23.6779 149.417 14.8746C145.303 -0.232173 126.375 8.86674 113.388 9.18204C97.5256 9.56635 87.8995 0.274499 75.5886 0.00547678C63.3497 -0.261977 52.7829 9.41106 37.2222 9.19145C24.771 9.01498 4.8339 0.0478299 0.82246 14.4786C-2.17779 25.2724 3.96374 46.3212 7.94884 54.6946C14.5561 68.581 23.959 69.2234 38.9184 62.701L54.6806 73.0642C81.2195 88.3428 98.402 70.1685 111.121 62.7073Z" fill="#7E5252"/>
</svg>
